#N canvas 428 612 334 215 10;
#X obj 86 194 dac~;
#X obj 86 128 readsf~ 2;
#X msg 87 58 start;
#X msg 282 25 stop;
#X obj 107 4 loadbang;
#X obj 253 106 print fungo;
#X msg 12 26 open ../../samples/the_lord_has_spoken.wav;
#X connect 1 0 0 0;
#X connect 1 1 0 1;
#X connect 2 0 1 0;
#X connect 3 0 1 0;
#X connect 4 0 6 0;
#X connect 4 0 5 0;
#X connect 6 0 1 0;
#X connect 6 0 2 0;
