#N canvas 564 161 846 388 10;
#X msg 26 256 \; pd dsp 1;
#X floatatom 490 -35 5 0 0 0 - - -;
#N canvas 0 50 385 256 (subpatch) 0;
#X floatatom 261 193 0 0 0 0 cpu-meter - -;
#X obj 260 129 cputime;
#X obj 260 33 loadbang;
#X obj 260 80 metro 1000;
#X msg 260 61 1;
#X obj 260 108 t b b;
#X obj 260 170 * 0.1;
#X obj 260 150 int;
#X text 331 203 comment;
#X connect 1 0 7 0;
#X connect 2 0 4 0;
#X connect 3 0 5 0;
#X connect 4 0 3 0;
#X connect 5 0 1 0;
#X connect 5 1 1 1;
#X connect 6 0 0 0;
#X connect 7 0 6 0;
#X coords 0 1 100 -1 120 20 1;
#X restore 31 120 graph;
#X msg 105 256 \; pd dsp 0;
#X obj -52 86 soundfiler;
#N canvas 0 50 450 300 (subpatch) 0;
#X array table 8.34571e+06 float 0;
#X coords 0 1 8.34571e+06 -1 100 60 1;
#X restore 38 173 graph;
#X obj 321 12 tabplay~ table;
#X obj 490 7 line 0 1;
#X obj 490 -16 pack 0 50;
#X floatatom 490 67 5 0 0 0 - - -;
#X obj 490 109 line 0 1;
#X obj 490 86 pack 0 50;
#X obj 324 289 dac~ 1 2;
#X msg 321 -27 stop;
#X obj -52 -12 openpanel;
#X obj -52 -38 bng 15 250 50 0 empty empty empty 17 7 0 10 -204786
-1 -1;
#X msg -52 9 read -resize \$1 table;
#X obj 493 -55 hsl 128 15 0 360 0 0 empty empty empty -2 -8 0 10 -262130
-1 -1 0 1;
#X obj 493 49 hsl 128 15 -40 90 0 1 empty empty empty -2 -8 0 10 -262130
-1 -1 3908 0;
#X obj -43 31 loadbang;
#X obj 321 253 orz_hrtf~;
#X text 28 292 DSP signal control;
#X text -28 -40 Open a custom file (shows window);
#X text 137 34 Open the default sample;
#X text 534 67 Elevation control (-40 to 90 degrees);
#X text 533 -38 Azimuth control (0 to 360 degrees);
#X floatatom 490 181 5 0 0 0 - - -;
#X obj 490 200 pack 0 50;
#X obj 493 152 hsl 128 15 0.1 5 0 1 empty empty empty -2 -8 0 10 -262130
-1 -1 2333 0;
#X msg -43 54 read -resize ../samples/the_lord_has_spoken.wav table
;
#X obj 371 -27 bng 15 250 50 0 empty empty empty 17 7 0 10 -262144
-1 -1;
#X obj 490 223 line 1 1;
#X text 318 -64 The bang starts filtering \, the stop stops it;
#X text 534 181 Distance control (0.1 to 5 meters);
#X connect 1 0 8 0;
#X connect 6 0 20 0;
#X connect 6 1 30 0;
#X connect 7 0 20 1;
#X connect 8 0 7 0;
#X connect 9 0 11 0;
#X connect 10 0 20 2;
#X connect 11 0 10 0;
#X connect 13 0 6 0;
#X connect 14 0 16 0;
#X connect 15 0 14 0;
#X connect 16 0 4 0;
#X connect 17 0 1 0;
#X connect 18 0 9 0;
#X connect 19 0 29 0;
#X connect 20 0 12 0;
#X connect 20 1 12 1;
#X connect 26 0 27 0;
#X connect 27 0 31 0;
#X connect 28 0 26 0;
#X connect 29 0 4 0;
#X connect 30 0 6 0;
#X connect 31 0 20 3;
