#N canvas 389 342 518 430 10;
#X obj 110 362 dac~;
#X msg 186 139 start;
#X msg 63 123 stop;
#X msg 110 57 open the_lord_has_spoken.wav;
#X obj 110 11 loadbang;
#X obj 228 366 print fungo;
#X obj 147 165 r azimuth;
#X obj 185 195 r elevation;
#X obj 228 228 r distance;
#X obj 110 251 orz_hrtf~ 0 0;
#X obj 110 140 readsf~;
#X obj 287 12 r start;
#X obj 207 11 r open;
#X obj 228 317 pack f f f;
#X connect 1 0 10 0;
#X connect 2 0 10 0;
#X connect 3 0 1 0;
#X connect 3 0 10 0;
#X connect 4 0 3 0;
#X connect 6 0 9 1;
#X connect 6 0 13 1;
#X connect 7 0 9 2;
#X connect 7 0 13 2;
#X connect 8 0 13 0;
#X connect 9 0 0 0;
#X connect 9 1 0 1;
#X connect 10 0 9 0;
#X connect 11 0 1 0;
#X connect 12 0 3 0;
#X connect 13 0 5 0;
