#N canvas 389 342 518 430 10;
#X obj 110 362 dac~;
#X msg 176 123 start;
#X msg 233 123 stop;
#X obj 297 367 print fungo;
#X obj 147 170 r azimuth;
#X obj 242 172 r elevation;
#X obj 354 172 r distance;
#X obj 110 140 readsf~;
#X obj 176 90 r start;
#X obj 110 13 r open;
#X obj 297 318 pack f f f;
#X obj 162 195 r yaw;
#X obj 147 238 -;
#X obj 257 197 r pitch;
#X obj 371 196 r roll;
#X obj 178 223 bng 15 250 50 0 empty empty empty 17 7 0 10 -262144
-1 -1;
#X obj 242 243 -;
#X obj 273 228 bng 15 250 50 0 empty empty empty 17 7 0 10 -262144
-1 -1;
#X obj 297 281 bng 15 250 50 0 empty empty empty 17 7 0 10 -262144
-1 -1;
#X obj 233 90 r stop;
#X msg 110 49 open the_lord_has_spoken.wav;
#X obj 110 319 orz_hrtf~ 0 0 1;
#X connect 1 0 7 0;
#X connect 2 0 7 0;
#X connect 4 0 12 0;
#X connect 5 0 16 0;
#X connect 6 0 10 2;
#X connect 6 0 21 3;
#X connect 7 0 21 0;
#X connect 8 0 1 0;
#X connect 9 0 20 0;
#X connect 10 0 3 0;
#X connect 11 0 15 0;
#X connect 11 0 12 1;
#X connect 12 0 10 0;
#X connect 12 0 21 1;
#X connect 13 0 17 0;
#X connect 13 0 16 1;
#X connect 15 0 12 0;
#X connect 16 0 10 1;
#X connect 16 0 18 0;
#X connect 16 0 21 2;
#X connect 17 0 16 0;
#X connect 18 0 10 0;
#X connect 19 0 2 0;
#X connect 20 0 7 0;
#X connect 21 0 0 0;
#X connect 21 1 0 1;
