#N canvas 677 143 841 358 10;
#X obj 192 309 dac~;
#X msg 165 88 start;
#X msg 222 88 stop;
#X obj 403 52 r azimuth;
#X obj 631 52 r elevation;
#X obj 727 52 r distance;
#X obj 165 55 r start;
#X obj 99 17 r open;
#X obj 623 207 pack f f f;
#X obj 472 47 r yaw;
#X obj 403 120 -;
#X obj 522 47 r pitch;
#X obj 575 47 r roll;
#X obj 434 105 bng 15 250 50 0 empty empty empty 17 7 0 10 -262144
-1 -1;
#X obj 623 111 -;
#X obj 656 96 bng 15 250 50 0 empty empty empty 17 7 0 10 -262144 -1
-1;
#X obj 623 185 bng 15 250 50 0 empty empty empty 17 7 0 10 -262144
-1 -1;
#X obj 222 55 r stop;
#X obj 623 249 print working;
#X msg 99 53 open \$1;
#X obj 497 82 ypr_to_ae;
#X obj 99 105 readsf~ 2;
#X obj 133 266 /~ 2;
#X obj 133 238 +~;
#X obj 264 266 /~ 2;
#X obj 264 238 +~;
#X obj 99 198 orz_hrtf~ 5 0 1;
#X obj 224 197 orz_hrtf~ -5 0 1;
#X obj 128 168 + 5;
#X obj 255 168 - 5;
#X obj 128 143 r a;
#X obj 157 168 r e;
#X obj 186 168 r d;
#X obj 255 143 r a;
#X obj 286 168 r e;
#X obj 317 168 r d;
#X obj 403 182 s a;
#X obj 508 182 s e;
#X obj 727 182 s d;
#X connect 1 0 21 0;
#X connect 2 0 21 0;
#X connect 3 0 10 0;
#X connect 4 0 14 0;
#X connect 5 0 8 2;
#X connect 5 0 16 0;
#X connect 5 0 38 0;
#X connect 6 0 1 0;
#X connect 7 0 19 0;
#X connect 8 0 18 0;
#X connect 9 0 20 0;
#X connect 10 0 8 0;
#X connect 10 0 36 0;
#X connect 11 0 20 1;
#X connect 12 0 20 2;
#X connect 13 0 10 0;
#X connect 14 0 8 1;
#X connect 14 0 16 0;
#X connect 14 0 37 0;
#X connect 15 0 14 0;
#X connect 16 0 8 0;
#X connect 17 0 2 0;
#X connect 19 0 21 0;
#X connect 20 0 10 1;
#X connect 20 0 13 0;
#X connect 20 1 14 1;
#X connect 20 1 15 0;
#X connect 21 0 26 0;
#X connect 21 1 27 0;
#X connect 22 0 0 0;
#X connect 23 0 22 0;
#X connect 24 0 0 1;
#X connect 25 0 24 0;
#X connect 26 0 23 0;
#X connect 26 1 25 0;
#X connect 27 0 23 1;
#X connect 27 1 25 1;
#X connect 28 0 26 1;
#X connect 29 0 27 1;
#X connect 30 0 28 0;
#X connect 31 0 26 2;
#X connect 32 0 26 3;
#X connect 33 0 29 0;
#X connect 34 0 27 2;
#X connect 35 0 27 3;
